<?xml version="1.0" encoding="UTF-8"?>
<svg id="Capa_1" data-name="Capa 1" xmlns="http://www.w3.org/2000/svg" viewBox="0 0 759.46 889.07">
  <defs>
    <style>
      .cls-1 {
        fill: #d9ed8d;
      }

      .cls-2 {
        fill: #fd6a25;
      }

      .cls-3 {
        fill: #fefefe;
      }

      .cls-4 {
        fill: #1c1a17;
      }
    </style>
  </defs>
  <path class="cls-4" d="M741.54,720.83l-47.04-147.02c-3.66-11.45-11.01-19.94-22.24-24.73,3.05-15.22,5.41-30.09,7.46-45.56l6.51-49.11c1.39-10.45,2.91-20.5,2.86-31.35-.03-7.02-2.49-12.33-7.52-16.38-7.18-5.77-4.82-19.32-18.14-25.47l-10.48-4.84c-6.17-2.85-1.9-16.03-16.98-22.48l-14.01-5.99c-3.34-33.9-4.32-67.39-5.19-101.44l-.51-19.85c-.19-7.58-3.95-14.91-11.73-16.64-8.7-1.94-17.4,2.01-22.87,8.94-8.42,10.66-10.28,26.33-11.54,39.83l-5.5,58.65-3.1,25.81c-2.24,3.27-4.07,6.46-6.97,9.2-10.36-20.07-27.8-34.95-49.5-41.62,4.89-28.89,1.93-64.47-7-92.21,3.18-18.44,2.74-36.42.78-55.29-6.76-65.08-48.83-107.27-104.13-139.43C355.03.76,318.5-2.67,272.6,1.55c-24.02,2.21-57.18,12.19-78.16,23.81-56.91,31.54-88.69,71.48-96.27,134.26-1.25,10.34-2.49,19.74-2.49,30.46l-.09,357.26c-35.85,23.48-61.55,45.03-76.23,86.45-11.48,32.03-16.97,78.08-18.16,111.93l-1.2,34.03.2,88.59c.03,13.49,11.59,20.7,23.86,20.7l662.79.02c17.78,0,33.46-4.89,46.62-16.98,12.86-11.81,21.15-27.41,24.13-45.05,6.36-37.67-4.71-70.75-16.06-106.21ZM579.95,297.79c3.52-1.78,7.56-2.92,8.31-7.35l-8.04-.9c1.21-16.28,2.48-32.22,4.97-48.32.79-5.12,2.25-9.65,5.2-13.75,2.71-3.76,7.81-5.64,12.09-3.39,2.28,1.19,3.13,4.38,3.16,6.86l.24,24.87.85,24.8,1.05,24.46,2.12,40.65-8.04-2.75c-9.05-3.1-17.71-4.39-27.38-2.52l5.46-42.66ZM569.89,383.39c-.16-5.98-3.56-9.6-6.29-14.62-2.01-3.71.77-11.18,3.97-14.22,7.84-7.45,18.96-7.15,28.42-3.47l21.64,8.44c9.08,3.54,20.24,3.8,19.69,15.43-11.99-2.42-32.41-8.66-43.25-5.81-8.05,2.12-13.63,8.78-16.06,16.52l-8.05,25.6c-6.91,21.97-2.13,17.59-2.76,41.64-3.24-2.05-6.07-3.14-10.07-3.24l-1.09-20.22c9.61-13.44,14.28-29.53,13.84-46.06ZM555.16,377.52c1.39.67,3.47,2.53,3.8,4.91,2.17,15.39-2.19,31.57-12.81,42.93-4.77,5.1-9.39,9.33-14.84,13.52,1.6,3.38,5.14,4.2,8.48,3.16,2.84-.89,4.21-3.35,7.22-5,2.23,17.68-1.18,16.53-10.47,29.83,12.73,3.29,10.39-11.42,21.1-6.36,27.81,13.16,9.06,65.12,35.89,64.74-10.43-14.95-7.38-29.87-9.91-48.7-.15-1.12,2.82-.78,3.67-.73,2.02.13,4.22,9.76,13.17,12.85,8.6,2.97,17.16-2.31,20.88-10.21,3.55-7.55,4.34-15.22,4.18-24.33,3.9,5.92,16.17,8.91,18.3,6.14,3.31-4.32-16.14-6.83-10.72-15.24,4.12-.54,19.66,2.69,19.65-3.11,0-7.33-16.13,3.3-27.02-11.76-3.19,7.22-7.06,12.87-9.04,19.87-1.84,6.49.31,29.79-11.39,30.04-9.44.2-7.76-13.04-8.13-20.58-.82-17.14,3.65-33.78,14.71-46.82,2.65-3.12,5.87-5.72,10.54-5.14l20.09,2.46c2.89.35,6.16.57,8.47-1.12,1.31-.96.73-2.8.15-3.83-2.41-4.34-25.65-6.03-31.69-6.38-6.67-.38-12.46,2.13-16.6,7.67-20.16,27.02-12.06,55.42-17.47,57.44-1.39.52-5.66,1.53-6.19-.89-2.68-12.31-4.65-25.26-2.73-37.97,2.06-13.71,6.4-27.24,12.49-39.21,3.55-6.98,11.58-9.32,18.24-8.11l28.33,5.11c8.23,1.49,15.8,4.3,22.55,9.05,7.66,5.39,3.35,11.79,10.75,17.49,5.42,4.17,7.54,10.05,7.19,16.93-.57,11.4-2.57,22.04-4.28,33.42-3.62,23.99-7.11,47.25-12.01,70.94-5.24,25.38-7.37,14.38-2.5,47.37-20.19,17.2-54.25,28.45-80.3,33.18-1.66-20.28-6.16-35.3-7.86-55.62-.45-5.43-2.86-8.85-6.99-12.02-25.04-19.19-42.67-54.32-47.49-84.91-1.1-7.01-1.33-32.04,3.14-38.33l13.23-14.96c3.26-3.69,8.61,2.34,14.42-1.28.88-2.22-4.92-2.75-5.9-4.49-2.64-4.68,5.82-16.07,9.41-20.83,1.27-1.69,4.6-1.95,6.3-1.13ZM466.75,473.67c13.13,1.86,25.93-1.9,36.7-9.19,1.89,4.48,2.18,8.51,2.96,12.67-15.59,9.29-33.17,12.59-51.24,7.25,2-3.96,2.89-8.26,5.65-11.77,1.26-1.29,4.18.79,5.93,1.04ZM464.55,465.3c1.49-3.81,2.42-8.24,5.05-11.65,2.09.56,4.72,3.25,6.64,2.01,6.57-4.23-.24-4.49,17.83-7.75l2.35-7.96c.47-1.59,3.54-1.58,5.41-1.81.24,6.23.65,12.37.13,18.53-22.55,2.75-12.79,11.99-27.48,6.38-2.72.66-5.36,3.49-9.94,2.25ZM473.12,502.39c12.91-.35,24.84-3.63,36.86-9.14,7.67,17.05,16.83,32.08,26.05,48.51l-48.35-18.84c-13.78-5.91-26.18-13.1-38.4-21.67-.7-.49-1.37-.64-1.56-1.09-.45-1.02.2-1.79,1.38-1.94,7.84,2.48,15.67,3.98,24.03,4.18ZM501.7,325.67c12.2,4.73,22.35,12.43,31.09,21.93,4.65,5.13,8,10.79,11.2,17.25l-9.8,15.44-6.06-14.28c-6.59-12.58-17.47-21.1-31.02-25.74,1.47-4.89,2.43-9.47,4.6-14.6ZM494.67,352.32c3.55-1.34,8.93-1.35,11.25,2.44,1.33,2.18-.13,5.2,1.09,7.5,3.11.92,6.34,1.2,9.2,2.7,2.67,1.41,3.95,4.08,2.69,7-.95,2.2-2.18,4.16-2.94,6.62,2.12,5.82,13.48,8.88,9.53,14.61-3.53,5.11-7.81,10.45-13.77,13.67-1.61.87-2.92-2.63-3.11-3.84-.62-3.97,6.12-7.07,6.11-10.75-.96-2.15-3.89-3.14-5.38-4.83-4.79-5.42.44-11.59-1.49-14.33-.75-1.07-5.2-1.33-7.84-3.5-1.62-1.33-.59-3.91-1.59-5.67-.82-1.45-3.97-1.3-4.28-3.43-.38-2.61.64-4.97.53-8.18ZM481.23,332.26l-13.34,43.26-16.49,55.42c-3.9,13.12-7.82,25.74-13.05,38.16-4.57,10.85-12.6,18.09-23.27,22.29-14.54,5.72-28.91,7.2-44.76,6.04-32.18-2.36-63.49-9.29-93.65-21.07,13.22-19.15,16.84-42.2,15.99-63.9-2.1-53.67-43.2-107.28-101.67-101.55l-1.2-34.56c.23-7.04.03-13.54-.67-20.59l-.15-72.91c15.92-9.73,32.51-17.55,50.7-22.71,31.49-8.93,62.94-14.18,95.51-15.91l12.19-.65c42.5-2.27,95.95.07,136.57,12.98l.85,11.88c-7.99-3.03-15.97-3.95-24.55-3.44l-29.05,1.75c-22.67,1.37-26.83-7.87-46.58-6.17-9.67.84-21.31,13.14-50.22,11.29-34.43-2.21-63.84-4.13-97.76,5.57-3.66,1.04-7.58,3.02-8.97,6.46-.84,2.1.93,3.93,2.33,4.63,1.24.62,3.46,1.5,5.35.6,15.87-7.53,32.74-10.35,50.34-10.56,14.05-.16,27.22.55,41.09,2.64,32.06,4.83,29.92,2.86,57.45-5.7,2.82-.88,4.99.31,6.2,2.96,21.52,46.96,34.39,91.49,40.01,143.11.13,1.18-.04,2.89-.51,3.47-.56.69-2.17,1.42-3.58,1.46-6.92.21-51.24,1.08-53.75-1.46-1.93-1.96,1.03-6.7-2.45-10.31-1.4-1.46-4.11-3.01-6.65-1.71-3.87,1.98-4.1,6.43-4.42,10.29-.6,7,3.08,12.08,10.08,13.51,14.35,2.93,50.37,4.4,64.94,2.35,5.51-.78,9.62-4.44,10.42-10.19,3.44-24.76-12.84-81.75-21.91-107.85,12.17.17,32.25-.92,42.27-7.8,9.86-6.76,15.85-23.73,13.77-27.63-3.95-7.38-34.66.06-41.72,5.6-8.34,5.26-13.98,12.41-20.29,20.61l-14.11-37.84c16.58,2.66,31.82,2.75,47.65.66,6.44-.85,27.92-1.06,34.82,2.7,1.28,14.3-.36,28.29-4.03,41.78,5.68,12.9,8.11,26,9.43,39.95,2.35,24.89-1.84,49.22-9.19,73.06ZM195.03,350.86c5.65.06,11.34-.8,16.25,1.76,2.09,1.78,1.76,5.82,2.66,8.61,2.74,2.1,17.59-2.3,16.13,6.66l-1.84,11.33c4.06,1.92,13.68,3.45,15.29,9.32,1.21,4.42-2.36,7.95-4.72,11.37,1.62,5.4,9.79,9.16,9.13,15.8-.46,4.65-5.47,6.94-8.02,9.7l3.53,14.72c1.45,6.05-9.29,6.15-12.65,8.25.79,4.61,1.65,10.13.72,14.14-.78,1.18-5.35,1.1-5.65-.3-1.44-6.74-2.8-13.02-3.68-20.01l8.99-4.83c2.94-1.58-4.26-11.67-4.49-14.5,3.43-2.76,7.56-4.59,9.9-8.29,1.59-2.52-9.66-6.01-9.62-10.58.04-4.25,3.96-7.64,5.53-11.21-4.14-3.15-10.31-4.33-13.66-8.45-2.54-3.13.44-8.4.23-12.31l-10.65-1.29c-3.18-.38-2.88-6.36-4.69-9.01-1.63-2.39-5.79-.24-7.64-1.61-2.11-1.95-.68-6.24-1.03-9.26ZM220.61,516.79c-2.21-.41-3.81-1.46-5.64-2.65l-.22-17.88c7.02-.58,5.82,14.52,5.86,20.53ZM205.16,457.34c4.57.28,3.72,16.17,3.02,19.05-.28,1.15-4.03-.39-3.83-2.18.64-5.73-.46-10.91.81-16.87ZM196.11,481.8c1.28,7.34.33,14.59.89,22.62-3.3.41-6.14-.38-9.63-.4-.39-4.39.45-8.1-.47-12.31-6.83.37-13.25.05-20.12-.56l-.06-17.03c-5.73.65-11.09.64-16.92.56l-.31-20.01c-6.34.59-12.22.54-19.08.48l-.12-29.46c2.19-.68,4.17-.63,6.39-.11l.3,17.53,22.78.27.35,18.45c7.48-.25,10.36.19,17.34-.16l.57,19.97,18.11.16ZM176.44,527.84c-2.15-.46-3.2-1.82-5.14-2.8.04-7.94-.55-15.46-.02-23.62.08-1.27,4.68-1.29,4.7-.03l.45,26.45ZM152.38,485.05l-.17,22.89c-.01,1.59-3.53,1.7-4.14.81l-.17-23.51c-.01-1.59,4.48-1.62,4.47-.18ZM140.73,379.7l.84-18.86c2.72.91,8.03,2.38,8.96-.33,1.52-4.41-.09-16.47,1.77-18.53,1.6-1.76,8.79.59,10.44-2.56,1.53-2.92-.27-6.99.89-9.92.51-1.25,5.04-1.36,5.28,0,1.45,8.09.83,16.32,1.12,24.38l-6.39.78-.35,18.73c-3.77,1.01-7.66.07-11.84.72l-.23,19.77-15.62.32-.3,18.73-10.63.03-.26-32.72,16.29-.56ZM123.97,371.8v-83.49h5.13v83.49h-5.13ZM152.78,228.35c-.11,1.51-3.38,2.31-4.7,2.05l-.04-29.11c1-1.57,3.37-2.85,4.97-3.19-.23,10.54.5,20.14-.23,30.24ZM156.68,269.36c.88,1.94,1.82,3.81,1.36,6.42l-11.18,21.35-10.68-18.51c-.83-1.43-1.26-2.87-.82-4.56,3.66-8.28,7.68-16.06,12.5-24.08l8.83,19.38ZM153.67,330.65c-.47.93-3.14.58-4,.32l.12-17.87c0-.82.49-2.33,1.11-2.42,3.28-.49,2.97,16.49,2.76,19.97ZM141.25,347.85c0,1.77-3.85,2.16-4.4,1.21l-.08-45.17c0-1.38,2.21-1.11,2.87-.84.64.26,1.52.94,1.52,2.37l.08,42.42ZM136.7,242.88c0,1.05-3.34,1.48-4.09.58l-.36-36.28c1.8-1.23,2.7-2.31,4.65-2.74l-.19,38.45ZM162.73,251.47l-.21-58.22c0-2.72,4.09-4.88,6.35-3.81l.04,59.97c-1.82,1.12-3.38,1.59-6.18,2.06ZM168.72,318.75c-1.85,1.61-3.86,1.31-5.66.25-.45-10.17-.76-20.09-.04-30.21.09-1.28,2.44-1.37,3.15-1.05.86.37,2.08,1.78,2.11,3.32l.45,27.7ZM166.04,434.91l-4.41.02-.21-37.53,4.41-.02.21,37.53ZM150.85,407.65l-.08,26.7c0,1.82-2.51,1.7-3.79,1.02l.04-28.81c1.62-.4,2.69.13,3.82,1.08ZM135.95,518.27c-.38,2.24-3.47,3.24-5.69,4.52l-.02-60.28c1.99-.46,3.38-1.09,5.64-.91l.07,56.68ZM173.6,373.95c4.19.48,5.11,4,5.24,7.65l.74,21.01.07,44.95c-1.29,1.35-3.23,1.08-5.26.47l-.78-74.08ZM188.48,472.82c-.63-5.01-.14-9.83-.14-15.06l.03-54.22c4.1,1.57,4.28,5.23,4.43,8.54l.87,18.57.55,42.4c-2.19.35-3.75.28-5.74-.22ZM122.21,213.75l-.09,53.05c0,1.53-3.66,2.11-5.9,1.51l-.43-50.48c2.79-.57,4.03-2.06,6.42-4.08ZM112.08,549.47l39.97-28.31,25.96,18.79,29.02-19.35,34.65,21.34c.89,4.27,1.91,7.95,1.99,12.92l-36.88-21-28.69,19.4-26.64-18.91-39.25,28.28c-.45-4.85-.24-8.66-.13-13.16ZM231.96,487.53c-2.1-4-2.51-7.81-4.2-12.66,15.95-9.9,25.89-25.95,28.92-44.4,1.35-8.2,2.09-15.49,1.35-23.74-2.05-22.9-12.58-44.16-31.2-57.82-10.21-7.5-21.74-10.83-34.32-9.99l-1.07-14.37c19.16-1.27,36.91,5.87,51.05,18.99,19.86,18.42,30.33,44.19,29.74,71.45-.64,29.53-11.77,59.92-40.28,72.56ZM257.17,497.81c2-2,3.72-3.59,6.55-4.97,6.46,7.37,62.23,31.02,61.59,30.6l5.72,3.76c3.4,1.38,7.27.99,10.29,4.32-31.17-.67-61.92-8.25-92.29-14.92-2.1-14.2,1.6-12.26,8.13-18.79ZM427.64,212.02c3.06-4.02,5.78-7.28,9.8-11.38l6.11,11.37h-15.91ZM462.97,190.1c2.54-.07,4.06.51,7.5,1.02-1.48,4.6-2.94,9.36-6.99,12.93-1.16-4.77-.6-9.26-.51-13.95ZM149.51,569.86l-50.04,37.92c-1.87,1.42-7.25,4.36-7.5.41-.77-12.3-.6-24.84-.25-37.28.11-3.85,4.24-6.97,7.16-9.1l.28,33.91c4.73-3.41,8.92-6.67,13.37-10.44-.91-3.68-.61-7.51-.41-11.71l38.29-27.26,27.76,19.83,30.24-20.42,20.66,11.51c7.06,3.93,13.53,8.08,20.99,11.46.71,3.97,1.54,7.56,1.2,11.15l20.42,10.32-4.41-10.5c-7.27-17.29-11.98-35.03-17.55-53.39l21.27,4.49c23.75,5.02,47.03,9.15,71.38,10.49,28.16,1.55,59.84,1.22,85.81-10.28,4.38-1.94,8.29-3.94,11.54-7.68-1.44-1.95-3.74-2.93-5.21-6.05,4.25,0,12.34.5,14.15,4.78.82,1.94-.05,4.18-1.55,5.86-19.82,22.36-70.16,26.39-98,24.63l-11.3-.71c-25.34-1.59-49.73-6.26-74.47-12.55l9.7,27.97,8.87,24.34c1.45,3.97-.74,7.27-4.12,8.87-3.42,1.61-6.02,1.22-9.32-.55l-59.04-31.63-31.55,22.27-28.37-20.67ZM379.38,803.05l-92.61,21.29c-23.41,5.38-45.06,13.35-66.05,24.73l-18.28,9.12c18.03-18.86,40.25-32.23,65.17-41.13l-6.96-14.1-33.48-75.29-28.92-69.23c-1.47-3.52-2.58-6.81-3.02-10.84,8.88,14.37,16.47,28.56,23.93,43.95l59.71,123.26,143.15-31.31,76.62-16.02c3.48.41,6.84-2.47,9.94.45-43.06,13.74-85.56,25.07-129.21,35.11ZM736.14,752.3l-25.91-59.35c-9.16,7.78-17.84,14.39-27.85,20.48-26.08,15.09-54.91,23.71-85.07,25.3-11.26-.11-21.6.2-32.34-2.88.18,12.53,1.95,24.07,4.02,36.19l5.1,29.88,16.14,55.38c-9.21-11.12-16.03-23.41-20.86-36.88-5.32-14.86-10.27-29.05-12.82-44.76l-16.84-103.67-7.35-46.74c-3.9-24.8,6.08-38.16,25.93-52.32.16,3.23,1.9,6.25,1,8.96-1.17,3.53-16.07,12.53-16.72,27.45-.14,3.17,3.48,6.05,6.3,7.37,9.66,4.55,20.44,4.29,31.3,2.99,27.22-3.24,61.83-14.88,82.75-32.83,4.78-4.1,8.93-9.1,10.23-15.41.56-2.72-1.26-5.36-1.21-8.35,4.62.95,7.38,4.16,9.01,7.89,1.01,2.3,2.35,3.72,3.18,6.43l43.32,141.15c2.97,9.67,5.68,18.28,8.25,27.81.55,2.04,1.9,4.15.44,5.91Z"/>
  <path class="cls-3" d="M112.53,585.28c2.26-1.92,5.39-2.55,7.48-5.37,1.25-1.68,4.15-2.45,5.93-3.77l23.48-17.37,28.28,20.72,30.43-21.43,43.14,21.79,20.42,10.32-4.41-10.5c-7.27-17.29-11.98-35.03-17.55-53.39l21.27,4.49c23.75,5.02,47.03,9.15,71.38,10.49,28.16,1.55,59.84,1.22,85.81-10.28,4.38-1.94,8.29-3.94,11.54-7.68-1.44-1.95-3.74-2.93-5.21-6.05,4.25,0,12.34.5,14.15,4.78.82,1.94-.05,4.18-1.55,5.86-19.82,22.36-70.16,26.39-98,24.63l-11.3-.71c-25.34-1.59-49.73-6.26-74.47-12.55l9.7,27.97,8.87,24.34c1.45,3.97-.74,7.27-4.12,8.87s-6.02,1.22-9.32-.55l-59.04-31.63-31.55,22.27-28.37-20.67-50.04,37.92c-1.87,1.42-7.25,4.36-7.5.41-.77-12.3-.6-24.84-.25-37.28.11-3.85,4.24-6.97,7.16-9.1l.28,33.91c4.73-3.41,8.92-6.67,13.37-10.44Z"/>
  <path class="cls-1" d="M227.76,474.87c15.95-9.9,25.89-25.95,28.92-44.4,1.35-8.2,2.09-15.49,1.35-23.74-2.05-22.9-12.58-44.16-31.2-57.82-10.21-7.5-21.74-10.83-34.32-9.99l-1.07-14.37c19.16-1.27,36.91,5.87,51.05,18.99,19.86,18.42,30.33,44.19,29.74,71.45-.64,29.53-11.77,59.92-40.28,72.56-2.1-4-2.51-7.81-4.2-12.66Z"/>
  <path class="cls-2" d="M151.47,534.35l-39.25,28.28c-.45-4.85-.24-8.66-.13-13.16l39.97-28.31,25.96,18.79,29.02-19.35,34.65,21.34c.89,4.27,1.91,7.95,1.99,12.92l-36.88-21-28.69,19.4-26.64-18.91Z"/>
  <path class="cls-2" d="M251.28,579.85l-43.14-21.79-30.43,21.43-28.28-20.72-23.48,17.37c-1.78,1.32-4.68,2.09-5.93,3.77-2.1,2.82-5.22,3.46-7.48,5.37-.91-3.68-.61-7.51-.41-11.71l38.29-27.26,27.76,19.83,30.24-20.42,20.66,11.51c7.06,3.93,13.53,8.08,20.99,11.46.71,3.97,1.54,7.56,1.21,11.15Z"/>
  <path class="cls-3" d="M231.5,462.52c-.78,1.18-5.35,1.1-5.65-.3-1.44-6.74-2.8-13.02-3.68-20.01l8.99-4.83c2.94-1.58-4.26-11.67-4.49-14.5,3.43-2.76,7.56-4.59,9.9-8.29,1.59-2.52-9.66-6.01-9.62-10.58.04-4.25,3.96-7.64,5.53-11.21-4.14-3.15-10.31-4.33-13.66-8.45-2.54-3.13.44-8.4.23-12.31l-10.65-1.29c-3.18-.38-2.88-6.36-4.69-9.01-1.63-2.39-5.79-.24-7.64-1.61-2.11-1.95-.68-6.24-1.03-9.26,5.65.06,11.34-.8,16.25,1.76,2.09,1.78,1.76,5.82,2.66,8.61,2.74,2.1,17.59-2.3,16.13,6.66l-1.84,11.33c4.06,1.92,13.68,3.45,15.29,9.32,1.21,4.42-2.36,7.95-4.72,11.37,1.62,5.4,9.79,9.16,9.13,15.8-.46,4.65-5.47,6.94-8.02,9.7l3.53,14.72c1.45,6.05-9.29,6.15-12.65,8.25.79,4.61,1.65,10.13.72,14.14Z"/>
  <path class="cls-3" d="M196.11,481.8c1.28,7.34.33,14.59.89,22.62-3.3.41-6.14-.38-9.64-.4-.39-4.39.45-8.1-.47-12.31-6.83.37-13.25.05-20.12-.56l-.06-17.03c-5.73.65-11.09.64-16.92.56l-.31-20.01c-6.34.59-12.22.54-19.08.48l-.12-29.46c2.19-.68,4.17-.63,6.39-.11l.3,17.53,22.78.27.35,18.45c7.48-.25,10.36.19,17.34-.16l.57,19.97,18.11.17Z"/>
  <path class="cls-2" d="M341.33,531.52c-31.17-.67-61.92-8.25-92.29-14.92-2.1-14.2,1.6-12.26,8.13-18.79,2-2,3.72-3.59,6.55-4.97,6.46,7.37,62.23,31.02,61.59,30.6l5.72,3.76c3.4,1.38,7.27.99,10.29,4.32Z"/>
  <path class="cls-3" d="M135.33,412.96l-10.63.03-.26-32.72,16.29-.56.84-18.86c2.72.91,8.03,2.38,8.96-.33,1.52-4.41-.09-16.47,1.77-18.53,1.6-1.76,8.79.59,10.44-2.55,1.53-2.92-.27-6.99.89-9.92.51-1.25,5.04-1.36,5.28,0,1.45,8.09.83,16.32,1.12,24.38l-6.39.78-.35,18.73c-3.77,1.01-7.66.07-11.84.72l-.23,19.77-15.62.32-.3,18.73Z"/>
  <path class="cls-3" d="M158.03,275.78l-11.18,21.35-10.68-18.51c-.83-1.43-1.26-2.87-.82-4.56,3.66-8.28,7.68-16.06,12.5-24.08l8.83,19.38c.88,1.94,1.82,3.81,1.36,6.42Z"/>
  <path class="cls-1" d="M301.13,87.1c-9.39-.06-15.23,6.11-21.06-.04-2.75-2.9-5.61-5.18-8.33-8.64,2.2-5.82,18.43-19.23,23.09-15.29.78.66,2.14,2.07,1.77,3.57-.8,3.27-3.57,5.16-5.93,7.63l8.62,8.84c.89.92,1.58,1.73,1.84,3.94Z"/>
  <path class="cls-1" d="M357.72,71.27c3,5.58,8.42,7.47,11.14,14.39-5.79-.95-12.31,1.15-17.72-.69l-12.08-13.45c4.63-4.32,16.93-14.63,22.43-10.91,1,.68,2.6,2.26,1.99,4.1-.95,2.84-3.72,4.33-5.76,6.57Z"/>
  <path class="cls-1" d="M336.28,84.63c-3.17,1.59-6,.3-9.41.93-11.55,2.14-8.81-.67-20.09-12.16,2.68-5.21,17.71-16.48,21.84-12.34,3.43,3.43-.98,6.12-4.38,10.36,4.17,3.91,7.72,8.12,12.03,13.21Z"/>
  <rect class="cls-1" x="123.97" y="288.31" width="5.13" height="83.49"/>
  <path class="cls-1" d="M400.78,87.09c-5.39.02-11.37.15-16.13-1.3-4.6-3.86-7.58-9.72-11.8-14.46,6.14-4.52,14.81-12.75,21.64-8.75,1.75,1.03,3.65,3.71,1.97,5.17l-5.67,4.96c4.01,4.22,7.61,8.09,9.99,14.38Z"/>
  <path class="cls-1" d="M266.38,91.04l-14.73,4.91-13.09-11.42c3.61-5.52,16.05-18.73,22.32-15.65,4.66,2.29-2.18,9.89-4,12.16l9.5,10Z"/>
  <path class="cls-1" d="M168.91,249.41c-1.82,1.12-3.38,1.59-6.18,2.06l-.21-58.22c0-2.72,4.09-4.88,6.35-3.81l.04,59.97Z"/>
  <path class="cls-1" d="M179.57,402.62l.07,44.95c-1.29,1.35-3.23,1.08-5.26.47l-.78-74.08c4.19.48,5.11,4,5.24,7.65l.74,21.01Z"/>
  <path class="cls-1" d="M299.99,125.55c-5.25.94-11.35,2.72-16.25,2.47l-12.3-11.53c4.28-5.86,12.97-15.29,18.79-14.6,1.42.17,3.82,1.18,3.65,3.27-.25,3.1-3.08,5.26-4.96,7.98l11.07,12.4Z"/>
  <path class="cls-1" d="M334.39,34.1c2.85,3.5,5.86,6.03,7.97,10.94-5.38-.51-11.64,1.06-16.81-.32-4.33-2.76-7.19-8.16-11.27-12.11,4.54-5.09,18.38-11.89,22.87-7.47.86.85,2.05,2.62,1.24,4.38s-2.55,2.54-4,4.59Z"/>
  <path class="cls-1" d="M268.24,128.8c-3.63,1.3-8.9,5.02-12.98,4.08-5.17-1.38-8.33-7.01-13.32-10.04.89-5.08,16.85-20.38,20.23-14.75,2.23,3.72-1.06,6.5-3.04,9.95l9.11,10.76Z"/>
  <path class="cls-1" d="M194.22,473.04c-2.19.35-3.75.28-5.74-.22-.63-5.01-.14-9.83-.14-15.06l.03-54.22c4.1,1.57,4.28,5.23,4.43,8.54l.87,18.57.55,42.4Z"/>
  <path class="cls-1" d="M328.55,123.97c-5.44.94-10.61,1.27-16.03.72-3.26-7.01-9.07-7.84-9.5-13.09,1.93-4.73,16.69-14.69,20.36-10.25,2.63,3.18-2.2,7.39-4.27,9.56,3.15,4.49,6.66,7.85,9.43,13.06Z"/>
  <path class="cls-1" d="M234.62,97.51l-13.39,6.23-13.5-10.96c3.89-7.31,10.4-13.95,18.27-17.12,1.66-.67,2.21,3.53,1.67,4.65-1.2,2.51-2.96,4.9-3.46,7.51,3.4,3.47,7.08,5.32,10.41,9.69Z"/>
  <path class="cls-1" d="M309,44.02l-12.83,1.27c-9.6.95-7.8-4.67-15.5-10.56,3.25-4.79,18.79-16.62,22.51-9.77,2.21,4.08-2.71,5.64-3.82,8.51,3.69,2.97,6.55,6.05,9.65,10.55Z"/>
  <path class="cls-1" d="M375.66,110.87c4.48,3.72,6.74,8.36,9.73,13.53-5.56.78-10.03-.63-15.6-.46l-9.76-14.33c3.51-5.84,18.3-14.03,21.23-7.1,1.95,4.6-3.5,5.39-5.6,8.35Z"/>
  <path class="cls-1" d="M413.69,125.55l-14.89-.67-9.75-15.39c3.83-4.08,8.73-7.06,14.15-8.36,3.7-.89,7.85,1.13,8.43,4.82l-6.71,6.06c3.05,4.4,6.55,7.79,8.77,13.55Z"/>
  <path class="cls-1" d="M202.93,105.22c-3.59,3.25-7.61,4.8-11.68,7.55-5.24-2.34-9.69-5.28-14.45-9.33,4.03-6.94,8.76-14.09,16.16-17.45,2.55-1.15,3.57,4.05,2.6,5.84-1.05,1.93-1.69,3.57-2.11,5.42,3.3,2.58,6.48,4.16,9.48,7.97Z"/>
  <path class="cls-1" d="M350.63,107.65c-5.98,5.22,2.28,5.57,6.5,16.31l-15.69.04-10.34-13.7c3.52-4.25,17.29-14.79,20.96-8.54,1.07,1.83.46,4.24-1.43,5.89Z"/>
  <path class="cls-1" d="M274.42,46.15c-4.72,1.11-9,1.96-13.55,4.24-4.36-3.77-8.11-7.62-12-12.09,4.17-4.82,14.54-15.95,21.24-13.04,4.55,1.98-3.33,8.92-4.17,10.81,3.06,3.22,6.28,5.74,8.47,10.08Z"/>
  <path class="cls-1" d="M238.13,134.4c-4.63,1.21-8.33,5.57-13.39,5.53-4.26-.06-9.91-5.91-11.76-9.77.24-4.47,14.1-19.4,18.22-15.02,2.82,3-2.45,7.62-2.75,10.44,3.25,3.23,7,4.79,9.68,8.82Z"/>
  <path class="cls-1" d="M135.95,518.27c-.38,2.24-3.47,3.24-5.69,4.52l-.02-60.28c1.99-.46,3.38-1.09,5.64-.91l.07,56.68Z"/>
  <path class="cls-1" d="M440.82,130.18l-14.61-2.54-8.3-15.28c4.58-3,14.8-10.9,19.33-6.82,1.11,1,3.35,2.95,2.02,5.04-1.45,2.27-4.7,2.61-6.29,4.8,2.8,5.01,6.02,9.22,7.86,14.79Z"/>
  <path class="cls-1" d="M243.17,51.38l-14.51,5.3c-4.13-2.83-7.42-5.72-11.56-9.23,1.2-4.33,17.29-19.22,20.07-15.21,2.25,3.25-.43,6.83-2.77,9.53l8.76,9.6Z"/>
  <path class="cls-1" d="M172.7,118.27c-3.45,2.78-6.95,5.32-10.92,7.49l-14.6-7.83c2.8-8.37,8.22-15.17,16.46-19.15,2.17,3.49.5,7.14-1.52,10.64,3.56,3.17,7.42,4.6,10.58,8.84Z"/>
  <path class="cls-1" d="M156.8,166.28c-3.19,4-7.22,6.87-11.32,10.11-4.88-2.73-8.7-6.03-13.14-9.82.57-5.57,8.85-16.65,14.24-15.73,2.33.4,1.02,5.36.84,7.34,3.13,2.44,5.84,4.32,9.39,8.11Z"/>
  <path class="cls-1" d="M209.55,144.25l-12.47,6.47-11.85-9.43c.74-5.71,12.75-19.87,17.52-16.67,2.79,1.87-1.23,7.84-2.75,10.81,3.26,2.69,6.04,4.75,9.55,8.82Z"/>
  <path class="cls-1" d="M212.46,60.71c-4.58,3.18-9.23,4.36-13.88,6.74l-7.96-5.66c-1.02-.72-1.9-1.67-2.11-2.57-.95-4.04,14.19-19.44,19.02-17.8,1.27,4.12-1.35,7.54-3.93,10.48l8.86,8.82Z"/>
  <path class="cls-1" d="M183.32,154.51c-4.09,2.93-7.4,5.58-11.5,7.82-4.96-2.85-9.23-6.12-13.73-10.04,2.64-7.39,7.45-13.84,14.98-17.11,1.73,3.33.35,6.89-1.04,9.98,3.88,3.19,7.6,5.46,11.29,9.35Z"/>
  <path class="cls-1" d="M427.96,91.24l-13.53-1.75c-3.11-5.25-6.28-9.86-9.91-15.13,4.66-5.18,17.75-10.82,20.54-3.39,1.07,2.85-1.64,4.59-4.26,5.62l7.16,14.65Z"/>
  <path class="cls-1" d="M116.21,268.31l-.43-50.48c2.79-.57,4.03-2.06,6.42-4.08l-.09,53.05c0,1.53-3.66,2.11-5.9,1.51Z"/>
  <path class="cls-1" d="M123.14,175.75l8.12,6.6c-5.27,4.89-10.56,8.82-17.19,12.98-3.11-8.88-.81-19.74,7.6-25.19,1.78-.01,1.73,3.66,1.46,5.6Z"/>
  <path class="cls-1" d="M463.1,132.94c-3.11-.37-7.67-.32-10.63-1.95-3.14-3.93-4.82-9.01-7.46-13.39,3.17-3.75,10.13-7.54,13.08-4.93,1.13,1,3.69,2.94,2.65,4.92-4.27,8.11-1.16,2.37,2.36,15.35Z"/>
  <path class="cls-1" d="M180.82,71.55c-5.6,4.29-11.48,7.64-17.67,10-1.24.47-4.8-.38-4.34-1.92,1.69-5.66,11.61-19.14,17.41-18.99.64,2.02-1.7,4.47-.47,5.73l5.07,5.18Z"/>
  <path class="cls-1" d="M373.94,45.53c-16.71,1.57-13.26,1.34-23.47-11.16,3.52-2.71,10.07-4.54,13.48-1.95,4.12,3.12,6.24,8.53,9.98,13.11Z"/>
  <path class="cls-1" d="M140.18,119.45c-1.35,11.76,4.24,8.77,4.9,12.81.3,1.8-16.01,8.94-19.1,9.85.73-9.71,5.83-18.33,14.2-22.65Z"/>
  <path class="cls-1" d="M141.25,347.85c0,1.77-3.85,2.16-4.4,1.21l-.08-45.17c0-1.38,2.21-1.11,2.87-.84s1.52.94,1.52,2.37l.08,42.42Z"/>
  <path class="cls-1" d="M168.72,318.75c-1.85,1.61-3.86,1.31-5.66.25-.45-10.17-.76-20.09-.04-30.21.09-1.28,2.44-1.37,3.15-1.05.86.37,2.08,1.78,2.11,3.32l.45,27.7Z"/>
  <path class="cls-1" d="M451.58,97.09l-11.43-3.49c-2.07-4.53-6.11-8.95-6.72-14.11,1.1-2.87,7.72-1.59,8.84,1.69,3.75,4.87,7.11,9.25,9.31,15.9Z"/>
  <path class="cls-1" d="M132.6,243.46l-.36-36.28c1.8-1.23,2.7-2.31,4.65-2.74l-.19,38.45c0,1.05-3.34,1.48-4.09.58Z"/>
  <rect class="cls-1" x="161.52" y="397.39" width="4.41" height="37.53" transform="translate(-2.31 .92) rotate(-.32)"/>
  <path class="cls-1" d="M148.08,230.4l-.04-29.11c1-1.57,3.37-2.85,4.97-3.19-.23,10.54.5,20.14-.23,30.24-.11,1.51-3.38,2.31-4.7,2.05Z"/>
  <path class="cls-1" d="M176.44,527.84c-2.15-.46-3.2-1.82-5.14-2.8.04-7.94-.55-15.46-.02-23.62.08-1.27,4.68-1.29,4.7-.03l.45,26.45Z"/>
  <path class="cls-1" d="M152.22,507.94c-.01,1.59-3.53,1.7-4.14.81l-.17-23.51c-.01-1.59,4.48-1.62,4.47-.18l-.17,22.89Z"/>
  <path class="cls-1" d="M220.61,516.79c-2.21-.41-3.81-1.46-5.64-2.65l-.22-17.88c7.02-.58,5.82,14.52,5.86,20.53Z"/>
  <path class="cls-1" d="M478.54,138.35c-2.22-.02-3.88-1.05-5.8-1.69l-6.52-13.4c2.57-1.56,5.12-.9,6.97.82,2.75,4.23,4.82,8.37,5.34,14.27Z"/>
  <path class="cls-1" d="M150.77,434.35c0,1.82-2.51,1.7-3.79,1.02l.04-28.81c1.62-.4,2.69.13,3.82,1.08l-.08,26.7Z"/>
  <path class="cls-1" d="M153.67,330.66c-.47.93-3.14.58-4,.32l.12-17.87c0-.82.49-2.33,1.11-2.42,3.28-.49,2.97,16.49,2.76,19.97Z"/>
  <path class="cls-1" d="M208.18,476.38c-.28,1.15-4.03-.39-3.83-2.18.64-5.73-.46-10.91.81-16.87,4.57.28,3.72,16.17,3.02,19.05Z"/>
  <path class="cls-2" d="M444.54,329.01c3.44-24.76-12.84-81.75-21.91-107.85,12.17.17,32.25-.92,42.27-7.8,9.86-6.76,15.85-23.73,13.77-27.63-3.95-7.38-34.66.06-41.72,5.6-8.34,5.26-13.98,12.41-20.29,20.61l-14.11-37.84c16.58,2.66,31.82,2.75,47.65.66,6.44-.85,27.92-1.06,34.82,2.7,1.28,14.3-.36,28.29-4.03,41.78,5.68,12.9,8.11,26,9.43,39.95,2.35,24.89-1.84,49.22-9.19,73.06l-13.34,43.26-16.49,55.42c-3.9,13.12-7.82,25.74-13.05,38.16-4.57,10.85-12.6,18.09-23.27,22.29-14.54,5.72-28.91,7.2-44.76,6.04-32.18-2.36-63.49-9.29-93.65-21.07,13.22-19.15,16.84-42.2,15.99-63.9-2.1-53.67-43.2-107.28-101.67-101.55l-1.2-34.56c.23-7.04.03-13.54-.67-20.59l-.15-72.91c15.92-9.73,32.51-17.55,50.7-22.71,31.49-8.93,62.94-14.18,95.51-15.91l12.19-.65c42.5-2.27,95.95.07,136.57,12.98l.85,11.88c-7.99-3.03-15.97-3.95-24.55-3.44l-29.05,1.75c-22.67,1.37-26.83-7.87-46.58-6.17-9.67.84-21.31,13.14-50.22,11.29-34.43-2.21-63.84-4.13-97.76,5.57-3.66,1.04-7.58,3.02-8.97,6.46-.84,2.1.93,3.93,2.33,4.63,1.24.62,3.46,1.5,5.35.6,15.87-7.53,32.74-10.35,50.34-10.56,14.05-.16,27.22.55,41.09,2.64,32.06,4.83,29.92,2.86,57.45-5.7,2.82-.88,4.99.31,6.2,2.96,21.52,46.96,34.39,91.49,40.01,143.11.13,1.18-.04,2.89-.51,3.47-.56.69-2.17,1.42-3.58,1.46-6.92.21-51.24,1.08-53.75-1.46-1.93-1.96,1.03-6.7-2.45-10.31-1.4-1.46-4.11-3.01-6.65-1.71-3.87,1.98-4.1,6.43-4.42,10.29-.6,7,3.08,12.08,10.08,13.51,14.35,2.93,50.37,4.4,64.94,2.35,5.51-.78,9.62-4.44,10.42-10.19ZM332.79,223.6c5.37.4,19.27,1.51,21.56-1.5,2.77-3.64-12.16-26.27-31.91-31.34-21.79-5.6-44.84-3.73-65.8,3.3-1.7.57-3.03,1.54-3.38,2.47-1.44,3.86,9.58,12.6,11.61,13.75,11.08,6.31,22.39,9.89,34.87,10.83l33.04,2.49ZM399.57,384.26c13.01.71,25.5,2.37,38.39,4.18,2.11.29,4-.11,5.08-1.41.84-1.01,3.47-10.28-3.71-14.4-4.29-2.46-9.13-2.73-14.18-3.2-25.1-2.35-49.61.42-73.18,9.1-5.24,1.93-18.72,4.45-16.41,11.07.6,1.72,3.29,3.53,5.86,3.06l33.24-6.04c8.37-1.52,16.27-2.84,24.9-2.37ZM428.21,410.41c.6-1,.09-2.34-.49-2.71-.52-.33-1.53-.72-2.43-.39l-24.34,9.02c-6.78,2.51-13.16,5.3-19.34,9.04-1.46.89-1.27,3.71-.61,4.9,4.2,7.61,33.91,2.25,47.2-19.86Z"/>
  <path class="cls-3" d="M443.56,212.01h-15.91c3.06-4,5.78-7.27,9.8-11.37l6.11,11.37Z"/>
  <path class="cls-3" d="M470.48,191.13c-1.48,4.6-2.94,9.36-6.99,12.93-1.16-4.77-.6-9.26-.51-13.95,2.54-.07,4.06.51,7.5,1.02Z"/>
  <path class="cls-4" d="M332.79,223.6l-33.04-2.49c-12.48-.94-23.79-4.53-34.87-10.83-2.03-1.15-13.05-9.89-11.61-13.75.35-.93,1.68-1.9,3.38-2.47,20.96-7.03,44-8.9,65.8-3.3,19.74,5.07,34.67,27.7,31.91,31.34-2.29,3.01-16.19,1.9-21.56,1.5ZM301.37,199.43c-.46-4.14-2.88-3.5-5-3.67-1.28-.1-4.01,1.35-2.62,3.58,1.06,1.7,5.77.84,7.63.08ZM283.59,209.61l-3.31-12.88c-5.65,1.45-10.41,1.54-15.41,4.4,5.6,4.75,12.04,7.22,18.72,8.48ZM340.75,213.71c-4-5.31-8.26-9.49-13.91-12.13l-5.54,9.83c1.29,1.39,17.04,2.51,19.45,2.3Z"/>
  <path class="cls-4" d="M399.57,384.26c-8.63-.47-16.53.85-24.9,2.37l-33.24,6.04c-2.57.47-5.26-1.34-5.86-3.06-2.31-6.62,11.17-9.14,16.41-11.07,23.56-8.68,48.08-11.45,73.18-9.1,5.05.47,9.89.74,14.18,3.2,7.18,4.12,4.54,13.39,3.71,14.4-1.08,1.29-2.97,1.7-5.08,1.41-12.9-1.8-25.39-3.46-38.39-4.18Z"/>
  <path class="cls-4" d="M428.21,410.41c-13.29,22.11-43,27.47-47.2,19.86-.66-1.19-.85-4.02.61-4.9,6.17-3.74,12.56-6.52,19.34-9.04l24.34-9.02c.9-.33,1.91.06,2.43.39.58.37,1.08,1.71.49,2.71Z"/>
  <path class="cls-3" d="M283.59,209.61c-6.68-1.26-13.12-3.73-18.72-8.48,5.01-2.86,9.77-2.95,15.41-4.4l3.31,12.88Z"/>
  <path class="cls-3" d="M340.75,213.71c-2.41.22-18.16-.9-19.45-2.3l5.54-9.83c5.66,2.64,9.91,6.82,13.91,12.13Z"/>
  <path class="cls-1" d="M301.37,199.43c-1.85.76-6.57,1.61-7.63-.08-1.39-2.24,1.35-3.68,2.62-3.58,2.12.17,4.55-.48,5,3.67Z"/>
  <path class="cls-2" d="M379.38,803.05l-92.61,21.29c-23.41,5.38-45.06,13.35-66.05,24.73l-18.28,9.12c18.03-18.86,40.25-32.23,65.17-41.13l-6.96-14.1-33.48-75.29-28.92-69.23c-1.47-3.52-2.58-6.81-3.02-10.84,8.88,14.37,16.47,28.56,23.93,43.95l59.71,123.26,143.15-31.31,76.62-16.02c3.48.41,6.84-2.47,9.94.45-43.06,13.74-85.56,25.07-129.21,35.11Z"/>
  <path class="cls-3" d="M487.68,522.91c-13.78-5.91-26.18-13.1-38.4-21.67-.7-.49-1.37-.64-1.56-1.09-.45-1.02.2-1.79,1.38-1.94,7.84,2.48,15.67,3.98,24.03,4.18,12.91-.35,24.84-3.63,36.86-9.14,7.67,17.05,16.83,32.08,26.05,48.51l-48.35-18.84Z"/>
  <path class="cls-1" d="M455.16,484.4c2-3.96,2.89-8.26,5.65-11.77,1.26-1.29,4.18.79,5.93,1.04,13.13,1.86,25.93-1.9,36.7-9.19,1.89,4.48,2.18,8.51,2.96,12.67-15.59,9.29-33.17,12.59-51.24,7.25Z"/>
  <path class="cls-3" d="M464.55,465.3c1.49-3.81,2.42-8.24,5.05-11.65,2.09.56,4.72,3.25,6.64,2.01,6.57-4.23-.24-4.49,17.83-7.75l2.35-7.96c.47-1.59,3.54-1.58,5.41-1.81.24,6.23.65,12.37.13,18.53-22.55,2.75-12.79,11.99-27.48,6.38-2.72.66-5.36,3.49-9.94,2.25Z"/>
  <path class="cls-2" d="M574.09,801.92c-.66-.2-1.38-.72-1.68-1.74-5.05-17.69-9.13-34.81-11.91-53.24l-18.62-123.19c13.38,9.3,38.4,6.42,52.73,3.42,26.87-5.62,62.11-19.02,79.98-40.4,3.96-4.74,5.44-10.09,6.37-15.76,1.01,2.3,2.35,3.72,3.18,6.43l43.32,141.15c2.97,9.67,5.68,18.28,8.25,27.81.55,2.04,1.9,4.15.44,5.91l-25.91-59.35c-9.16,7.78-17.84,14.39-27.85,20.48-26.08,15.09-54.91,23.71-85.07,25.3-11.25-.11-21.61.2-32.34-2.88.18,12.53,1.95,24.07,4.02,36.19l5.1,29.88ZM674.79,662.66l14.86,9.1-3.84,24.35c7.49-4.01,13.32-8.59,19.14-13.9-3.57-10.97-6.42-21.38-9.41-32.51l-15.67-58.4c-6.72,9.17-17.25,15.78-26.48,22.2l22.78,15.12-8.05,30.4c1.92,1.85,4.06,2.94,6.66,3.64ZM649.32,715.66c7.72-3.01,14.69-6.26,21.47-10.47l4.49-26.62-22.53-13.5,8.66-30.65-21.82-14.11c-5.38,1.7-10.5,3.89-15.51,6.14l-4.69,17.82,21.81,15.2-9.65,29.44,20.43,15.36c-.79,3.99-2.38,7.03-2.66,11.4ZM616.09,724.11c6.71-1.3,13.67-2.07,19.83-5.09,2.45-1.26,2.15-5.97,2.8-8.24l-22.84-17.38,9.87-27.67-21.44-14.29,5.93-20.92c-6.27,2.52-11.86,3.89-18.33,5.44l-7.56,25.79,21.77,15.76c-1.54,10.02-8.21,21.08-10.68,31.57,4.67,4.91,9.45,8.59,14.22,12.89,1.62,1.46,3.99,2.62,6.44,2.14ZM591.63,683.46c-3.01-2.84-22.27-16.97-22.22-16.86-.53-1.2-.41-2.44.09-3.74l9.75-25.25-17.19-.05c-3.32,0-6.18-.69-9.45-1.69l4.57,34.88,7.44,51.7c9.65,3.24,19.64,4.53,30.43,4.03l-14.43-13.8,11-29.22Z"/>
  <path class="cls-3" d="M680.95,571.01c-.93,5.67-2.41,11.02-6.37,15.76-17.87,21.38-53.11,34.78-79.98,40.4-14.32,3-39.34,5.87-52.73-3.42l18.62,123.19c2.79,18.43,6.86,35.55,11.91,53.24.29,1.02,1.02,1.53,1.68,1.74l16.14,55.38c-9.21-11.12-16.04-23.41-20.86-36.88-5.32-14.86-10.27-29.05-12.82-44.76l-16.84-103.67-7.35-46.74c-3.9-24.8,6.08-38.16,25.93-52.32.16,3.23,1.9,6.24,1,8.96-1.17,3.53-16.07,12.53-16.72,27.45-.14,3.17,3.48,6.05,6.3,7.37,9.66,4.55,20.44,4.29,31.3,2.99,27.22-3.24,61.83-14.88,82.75-32.83,4.78-4.1,8.93-9.1,10.23-15.41.56-2.72-1.26-5.36-1.21-8.35,4.62.95,7.38,4.16,9.01,7.89Z"/>
  <path class="cls-2" d="M622.41,407.53l20.09,2.46c2.89.35,6.16.57,8.47-1.12,1.31-.96.73-2.8.15-3.83-2.41-4.34-25.65-6.03-31.69-6.38-6.67-.38-12.46,2.13-16.6,7.67-20.16,27.02-12.06,55.42-17.47,57.44-1.39.52-5.66,1.53-6.19-.89-2.68-12.31-4.65-25.26-2.73-37.97,2.06-13.71,6.4-27.24,12.49-39.21,3.55-6.98,11.58-9.32,18.24-8.11l28.33,5.11c8.23,1.49,15.8,4.3,22.55,9.05,7.66,5.39,3.35,11.79,10.75,17.49,5.42,4.17,7.54,10.05,7.19,16.93-.57,11.4-2.57,22.04-4.28,33.42-3.62,23.99-7.11,47.25-12.01,70.94-5.24,25.38-7.37,14.38-2.5,47.37-20.19,17.2-54.25,28.45-80.3,33.18-1.66-20.28-6.16-35.3-7.86-55.62-.45-5.43-2.86-8.85-6.99-12.02-25.04-19.19-42.67-54.32-47.49-84.91-1.1-7.01-1.33-32.04,3.14-38.33l13.23-14.96c3.26-3.69,8.61,2.34,14.42-1.28.88-2.22-4.92-2.75-5.9-4.49-2.64-4.68,5.83-16.07,9.41-20.83,1.27-1.69,4.6-1.95,6.3-1.13,1.39.67,3.47,2.53,3.8,4.91,2.17,15.39-2.19,31.57-12.81,42.93-4.77,5.1-9.39,9.33-14.84,13.52,1.6,3.38,5.14,4.2,8.48,3.16,2.84-.89,4.21-3.35,7.22-5,2.23,17.68-1.18,16.53-10.47,29.83,12.73,3.29,10.39-11.42,21.1-6.36,27.81,13.16,9.06,65.12,35.89,64.74-10.43-14.95-7.38-29.87-9.91-48.7-.15-1.12,2.82-.78,3.67-.73,2.02.13,4.22,9.76,13.17,12.85,8.6,2.97,17.16-2.31,20.88-10.21s4.34-15.22,4.18-24.33c3.9,5.92,16.17,8.91,18.3,6.14,3.31-4.32-16.14-6.83-10.72-15.24,4.12-.54,19.66,2.69,19.65-3.11,0-7.33-16.13,3.3-27.02-11.76-3.19,7.22-7.06,12.87-9.04,19.87-1.84,6.49.31,29.79-11.39,30.04-9.45.2-7.76-13.04-8.13-20.58-.82-17.14,3.65-33.78,14.71-46.82,2.65-3.12,5.87-5.72,10.54-5.14Z"/>
  <path class="cls-2" d="M601.87,342.97c-9.05-3.1-17.71-4.39-27.38-2.52l5.46-42.66c3.52-1.78,7.56-2.92,8.31-7.35l-8.04-.9c1.21-16.28,2.49-32.22,4.97-48.32.79-5.12,2.25-9.65,5.2-13.75,2.71-3.76,7.81-5.64,12.09-3.39,2.28,1.19,3.13,4.38,3.16,6.86l.24,24.87.85,24.8,1.05,24.46,2.12,40.65-8.04-2.75Z"/>
  <path class="cls-2" d="M569.96,411.27c-6.91,21.97-2.13,17.59-2.76,41.64-3.24-2.05-6.07-3.14-10.07-3.24l-1.09-20.22c9.61-13.44,14.28-29.53,13.84-46.06-.16-5.98-3.56-9.6-6.29-14.62-2.01-3.71.77-11.18,3.97-14.22,7.84-7.45,18.96-7.15,28.42-3.47l21.64,8.44c9.08,3.54,20.24,3.8,19.69,15.43-11.99-2.42-32.41-8.66-43.25-5.81-8.05,2.12-13.63,8.78-16.06,16.52l-8.05,25.6Z"/>
  <path class="cls-1" d="M534.19,380.29l-6.06-14.28c-6.59-12.58-17.47-21.1-31.02-25.74,1.47-4.89,2.43-9.47,4.6-14.6,12.2,4.73,22.35,12.43,31.09,21.93,4.65,5.13,8,10.79,11.2,17.25l-9.8,15.44Z"/>
  <path class="cls-3" d="M511.73,406.86c-1.61.87-2.92-2.63-3.11-3.84-.62-3.97,6.12-7.07,6.11-10.75-.96-2.15-3.89-3.14-5.38-4.83-4.79-5.42.44-11.59-1.49-14.33-.76-1.07-5.2-1.33-7.84-3.5-1.62-1.33-.59-3.91-1.59-5.67-.82-1.45-3.97-1.3-4.28-3.43-.38-2.61.64-4.97.53-8.18,3.55-1.34,8.93-1.35,11.25,2.44,1.33,2.18-.13,5.2,1.09,7.5,3.11.92,6.34,1.2,9.2,2.7,2.67,1.41,3.95,4.08,2.69,7-.95,2.2-2.18,4.16-2.94,6.62,2.12,5.82,13.48,8.88,9.53,14.61-3.53,5.11-7.81,10.45-13.77,13.67Z"/>
  <path class="cls-4" d="M649.32,715.66c.28-4.37,1.87-7.4,2.66-11.4l-20.43-15.36,9.65-29.44-21.81-15.2,4.69-17.82c5.01-2.25,10.12-4.44,15.51-6.14l21.82,14.11-8.66,30.65,22.53,13.5-4.49,26.62c-6.78,4.21-13.75,7.47-21.47,10.47ZM641.6,641.45c1.58-1.68.96-4.54-.25-5.53-.89-.73-2.23-2.61-4.23-2.41-2.27.23-3.38,4.61-2.3,6.17,1.57,2.26,4.38,4.34,6.79,1.78ZM656.1,691.07c2.29-1.24,2.91-3.81,2.06-5.31-.7-1.24-2.05-3.25-3.91-3.37-2.82-.19-4.38,2.91-3.94,5.21s3.03,4.96,5.79,3.47Z"/>
  <path class="cls-4" d="M616.09,724.11c-2.46.48-4.83-.68-6.44-2.14-4.76-4.31-9.54-7.98-14.22-12.89,2.47-10.49,9.14-21.55,10.68-31.57l-21.77-15.76,7.56-25.79c6.47-1.54,12.06-2.92,18.33-5.44l-5.93,20.92,21.44,14.29-9.87,27.67,22.84,17.38c-.64,2.27-.35,6.97-2.8,8.24-6.16,3.02-13.12,3.78-19.83,5.09ZM616.14,711.32c0-2.15-1.74-3.89-3.89-3.89s-3.89,1.74-3.89,3.89,1.74,3.89,3.89,3.89,3.89-1.74,3.89-3.89Z"/>
  <path class="cls-4" d="M591.63,683.46l-11,29.22,14.43,13.8c-10.79.5-20.79-.79-30.43-4.03l-7.44-51.7-4.57-34.88c3.27,1.01,6.13,1.68,9.45,1.69l17.19.05-9.75,25.25c-.5,1.3-.62,2.54-.09,3.74-.05-.12,19.21,14.01,22.22,16.86ZM564.58,654.07c2.05-1.63.81-6.59-1.54-7.03-2.78-.52-3.56,2.73-3.41,4.62.12,1.51,2.93,4.01,4.95,2.41ZM575.47,693.61c1.87-1.09,2.32-4.34,1.17-5.99-.86-1.23-2.77-3.48-4.65-2.61-2.72,1.26-3.16,4.23-2.2,6.02,1.09,2.04,3.33,3.95,5.68,2.57Z"/>
  <path class="cls-4" d="M674.79,662.66c-2.6-.7-4.74-1.79-6.66-3.64l8.05-30.4-22.78-15.12c9.23-6.42,19.76-13.03,26.48-22.2l15.67,58.4c2.98,11.13,5.84,21.54,9.41,32.51-5.82,5.31-11.65,9.89-19.14,13.9l3.84-24.35-14.86-9.1ZM677.33,611.27c.29-1.55.39-3.55-.75-4.13-1.95-.99-4.01,0-4.64,1.88-.45,1.35-.46,3.01,1.72,3.78,1.15.4,3.11,1.46,3.67-1.53ZM688.56,654.5c1.86-.6,2.05-3.57,1.68-5.05-.28-1.1-1.5-2.87-3.26-2.87-2.21,0-3.93,3.09-3.21,4.9.58,1.45,2.77,3.68,4.79,3.02Z"/>
  <path class="cls-2" d="M641.6,641.45c-2.41,2.56-5.22.48-6.79-1.78-1.08-1.56.03-5.94,2.3-6.17,2.01-.2,3.34,1.68,4.23,2.41,1.22,1,1.84,3.85.25,5.53Z"/>
  <path class="cls-2" d="M656.1,691.07c-2.76,1.49-5.36-1.25-5.79-3.47s1.12-5.4,3.94-5.21c1.86.12,3.21,2.13,3.91,3.37.85,1.5.23,4.07-2.06,5.31Z"/>
  <circle class="cls-2" cx="612.25" cy="711.32" r="3.89"/>
  <path class="cls-2" d="M575.47,693.61c-2.34,1.37-4.58-.53-5.68-2.57-.96-1.79-.53-4.77,2.2-6.02,1.88-.87,3.79,1.38,4.65,2.61,1.15,1.65.7,4.89-1.17,5.99Z"/>
  <path class="cls-2" d="M564.58,654.07c-2.02,1.6-4.83-.9-4.95-2.41-.15-1.89.63-5.14,3.41-4.62,2.35.44,3.59,5.4,1.54,7.03Z"/>
  <path class="cls-2" d="M688.56,654.5c-2.02.65-4.21-1.57-4.79-3.02-.72-1.8,1.01-4.89,3.21-4.9,1.76,0,2.98,1.76,3.26,2.87.37,1.49.18,4.45-1.68,5.05Z"/>
  <path class="cls-2" d="M677.33,611.27c-.56,2.99-2.51,1.93-3.67,1.53-2.18-.76-2.17-2.43-1.72-3.78.62-1.87,2.69-2.86,4.64-1.88,1.15.58,1.04,2.58.75,4.13Z"/>
</svg>